<?xml version="1.0" encoding="UTF-8" standalone="no"?>
<!-- Created with Inkscape (http://www.inkscape.org/) -->

<svg
   xmlns:dc="http://purl.org/dc/elements/1.1/"
   xmlns:cc="http://creativecommons.org/ns#"
   xmlns:rdf="http://www.w3.org/1999/02/22-rdf-syntax-ns#"
   xmlns:svg="http://www.w3.org/2000/svg"
   xmlns="http://www.w3.org/2000/svg"
   xmlns:sodipodi="http://sodipodi.sourceforge.net/DTD/sodipodi-0.dtd"
   xmlns:inkscape="http://www.inkscape.org/namespaces/inkscape"
   width="25.86302mm"
   height="25.86302mm"
   viewBox="0 0 25.86302 25.86302"
   version="1.1"
   id="svg8"
   inkscape:version="0.92.4 (5da689c313, 2019-01-14)"
   sodipodi:docname="twitter.svg">
  <defs
     id="defs2" />
  <sodipodi:namedview
     id="base"
     pagecolor="#ffffff"
     bordercolor="#666666"
     borderopacity="1.0"
     inkscape:pageopacity="0.0"
     inkscape:pageshadow="2"
     inkscape:zoom="0.35"
     inkscape:cx="222.90156"
     inkscape:cy="229.78573"
     inkscape:document-units="mm"
     inkscape:current-layer="g873"
     showgrid="false"
     fit-margin-top="0"
     fit-margin-left="0"
     fit-margin-right="0"
     fit-margin-bottom="0"
     inkscape:window-width="1366"
     inkscape:window-height="711"
     inkscape:window-x="0"
     inkscape:window-y="25"
     inkscape:window-maximized="1" />
  <metadata
     id="metadata5">
    <rdf:RDF>
      <cc:Work
         rdf:about="">
        <dc:format>image/svg+xml</dc:format>
        <dc:type
           rdf:resource="http://purl.org/dc/dcmitype/StillImage" />
        <dc:title></dc:title>
      </cc:Work>
    </rdf:RDF>
  </metadata>
  <g
     inkscape:label="Layer 1"
     inkscape:groupmode="layer"
     id="layer1"
     transform="translate(-86.613248,-93.053499)">
    <g
       id="g873"
       transform="matrix(0.26458333,0,0,0.26458333,97.437539,98.86016)">
      <g
         id="g819">
</g>
      <g
         id="g821">
</g>
      <g
         id="g823">
</g>
      <g
         id="g825">
</g>
      <g
         id="g827">
</g>
      <g
         id="g829">
</g>
      <g
         id="g831">
</g>
      <g
         id="g833">
</g>
      <g
         id="g835">
</g>
      <g
         id="g837">
</g>
      <g
         id="g839">
</g>
      <g
         id="g841">
</g>
      <g
         id="g843">
</g>
      <g
         id="g845">
</g>
      <g
         id="g847">
</g>
      <g
         id="g1314"
         transform="translate(-40.910705,-21.946434)"
         style="fill:#076f9f;fill-opacity:0.93142855">
        <g
           id="g1258"
           style="fill:#076f9f;fill-opacity:0.93142855">
	<path
   id="path1256"
   d="M 48.875,0 C 21.882,0 0,21.882 0,48.875 0,75.868 21.882,97.75 48.875,97.75 75.868,97.75 97.75,75.868 97.75,48.875 97.75,21.882 75.868,0 48.875,0 Z M 78.43,35.841 c 0.023,0.577 0.035,1.155 0.035,1.736 0,20.878 -15.887,42.473 -42.473,42.473 -8.127,0 -16.04,-2.319 -22.883,-6.708 -0.143,-0.091 -0.202,-0.268 -0.145,-0.427 0.057,-0.158 0.218,-0.256 0.383,-0.237 1.148,0.137 2.322,0.205 3.487,0.205 6.323,0 12.309,-1.955 17.372,-5.664 C 28.137,66.707 22.921,62.6 21.045,56.741 c -0.039,-0.122 -0.011,-0.255 0.073,-0.351 0.085,-0.096 0.215,-0.138 0.339,-0.115 1.682,0.319 3.392,0.34 5.04,0.072 C 20.238,54.402 15.839,48.539 15.839,41.864 l 0.002,-0.194 c 0.003,-0.127 0.072,-0.243 0.182,-0.306 0.109,-0.064 0.245,-0.065 0.355,-0.003 1.632,0.906 3.438,1.488 5.291,1.711 -3.597,-2.867 -5.709,-7.213 -5.709,-11.862 0,-2.682 0.71,-5.318 2.054,-7.623 0.06,-0.103 0.166,-0.169 0.284,-0.178 0.119,-0.012 0.234,0.04 0.309,0.132 7.362,9.03 18.191,14.59 29.771,15.305 -0.193,-0.972 -0.291,-1.974 -0.291,-2.985 0,-8.361 6.802,-15.162 15.162,-15.162 4.11,0 8.082,1.689 10.929,4.641 3.209,-0.654 6.266,-1.834 9.09,-3.508 0.129,-0.077 0.291,-0.065 0.41,0.028 0.116,0.094 0.164,0.25 0.118,0.394 -0.957,2.993 -2.823,5.604 -5.33,7.489 2.361,-0.411 4.652,-1.105 6.831,-2.072 0.146,-0.067 0.319,-0.025 0.424,0.098 0.104,0.124 0.113,0.301 0.023,0.435 -1.985,2.971 -4.445,5.54 -7.314,7.637 z"
   inkscape:connector-curvature="0"
   style="fill:#076f9f;fill-opacity:0.93142855" />

</g>
        <g
           id="g1260"
           style="fill:#076f9f;fill-opacity:0.93142855">
</g>
        <g
           id="g1262"
           style="fill:#076f9f;fill-opacity:0.93142855">
</g>
        <g
           id="g1264"
           style="fill:#076f9f;fill-opacity:0.93142855">
</g>
        <g
           id="g1266"
           style="fill:#076f9f;fill-opacity:0.93142855">
</g>
        <g
           id="g1268"
           style="fill:#076f9f;fill-opacity:0.93142855">
</g>
        <g
           id="g1270"
           style="fill:#076f9f;fill-opacity:0.93142855">
</g>
        <g
           id="g1272"
           style="fill:#076f9f;fill-opacity:0.93142855">
</g>
        <g
           id="g1274"
           style="fill:#076f9f;fill-opacity:0.93142855">
</g>
        <g
           id="g1276"
           style="fill:#076f9f;fill-opacity:0.93142855">
</g>
        <g
           id="g1278"
           style="fill:#076f9f;fill-opacity:0.93142855">
</g>
        <g
           id="g1280"
           style="fill:#076f9f;fill-opacity:0.93142855">
</g>
        <g
           id="g1282"
           style="fill:#076f9f;fill-opacity:0.93142855">
</g>
        <g
           id="g1284"
           style="fill:#076f9f;fill-opacity:0.93142855">
</g>
        <g
           id="g1286"
           style="fill:#076f9f;fill-opacity:0.93142855">
</g>
        <g
           id="g1288"
           style="fill:#076f9f;fill-opacity:0.93142855">
</g>
      </g>
    </g>
  </g>
</svg>
