<?xml version="1.0" encoding="UTF-8" standalone="no"?>
<!-- Created with Inkscape (http://www.inkscape.org/) -->

<svg
   xmlns:dc="http://purl.org/dc/elements/1.1/"
   xmlns:cc="http://creativecommons.org/ns#"
   xmlns:rdf="http://www.w3.org/1999/02/22-rdf-syntax-ns#"
   xmlns:svg="http://www.w3.org/2000/svg"
   xmlns="http://www.w3.org/2000/svg"
   xmlns:sodipodi="http://sodipodi.sourceforge.net/DTD/sodipodi-0.dtd"
   xmlns:inkscape="http://www.inkscape.org/namespaces/inkscape"
   width="25.86302mm"
   height="25.86302mm"
   viewBox="0 0 25.86302 25.86302"
   version="1.1"
   id="svg8"
   inkscape:version="0.92.4 (5da689c313, 2019-01-14)"
   sodipodi:docname="youtube.svg">
  <defs
     id="defs2" />
  <sodipodi:namedview
     id="base"
     pagecolor="#ffffff"
     bordercolor="#666666"
     borderopacity="1.0"
     inkscape:pageopacity="0.0"
     inkscape:pageshadow="2"
     inkscape:zoom="0.35"
     inkscape:cx="222.59799"
     inkscape:cy="229.48216"
     inkscape:document-units="mm"
     inkscape:current-layer="g873"
     showgrid="false"
     fit-margin-top="0"
     fit-margin-left="0"
     fit-margin-right="0"
     fit-margin-bottom="0"
     inkscape:window-width="1366"
     inkscape:window-height="711"
     inkscape:window-x="0"
     inkscape:window-y="25"
     inkscape:window-maximized="1" />
  <metadata
     id="metadata5">
    <rdf:RDF>
      <cc:Work
         rdf:about="">
        <dc:format>image/svg+xml</dc:format>
        <dc:type
           rdf:resource="http://purl.org/dc/dcmitype/StillImage" />
        <dc:title></dc:title>
      </cc:Work>
    </rdf:RDF>
  </metadata>
  <g
     inkscape:label="Layer 1"
     inkscape:groupmode="layer"
     id="layer1"
     transform="translate(-86.693567,-92.97318)">
    <g
       id="g873"
       transform="matrix(0.26458333,0,0,0.26458333,97.437539,98.86016)">
      <g
         id="g819">
</g>
      <g
         id="g821">
</g>
      <g
         id="g823">
</g>
      <g
         id="g825">
</g>
      <g
         id="g827">
</g>
      <g
         id="g829">
</g>
      <g
         id="g831">
</g>
      <g
         id="g833">
</g>
      <g
         id="g835">
</g>
      <g
         id="g837">
</g>
      <g
         id="g839">
</g>
      <g
         id="g841">
</g>
      <g
         id="g843">
</g>
      <g
         id="g845">
</g>
      <g
         id="g847">
</g>
      <g
         id="g1037"
         transform="translate(-40.607137,-22.250003)"
         style="fill:#076f9f;fill-opacity:0.97142857">
        <g
           id="g979"
           style="fill:#076f9f;fill-opacity:0.97142857">
	<g
   id="g977"
   style="fill:#076f9f;fill-opacity:0.97142857">
		<path
   id="path973"
   d="m 39.969,59.587 c 7.334,-3.803 14.604,-7.571 21.941,-11.376 -7.359,-3.84 -14.627,-7.63 -21.941,-11.447 0,7.634 0,15.19 0,22.823 z"
   inkscape:connector-curvature="0"
   style="fill:#076f9f;fill-opacity:0.97142857" />

		<path
   id="path975"
   d="M 48.875,0 C 21.883,0 0,21.882 0,48.875 0,75.868 21.883,97.75 48.875,97.75 75.867,97.75 97.75,75.868 97.75,48.875 97.75,21.882 75.867,0 48.875,0 Z m 33.301,65.189 c -0.846,3.67 -3.848,6.377 -7.461,6.78 -8.557,0.957 -17.217,0.962 -25.842,0.957 -8.625,0.005 -17.287,0 -25.846,-0.957 -3.613,-0.403 -6.613,-3.11 -7.457,-6.78 -1.203,-5.228 -1.203,-10.933 -1.203,-16.314 0,-5.381 0.014,-11.088 1.217,-16.314 0.844,-3.67 3.844,-6.378 7.457,-6.782 8.559,-0.956 17.221,-0.961 25.846,-0.956 8.623,-0.005 17.285,0 25.841,0.956 3.615,0.404 6.617,3.111 7.461,6.782 1.203,5.227 1.193,10.933 1.193,16.314 0,5.381 -0.003,11.087 -1.206,16.314 z"
   inkscape:connector-curvature="0"
   style="fill:#076f9f;fill-opacity:0.97142857" />

	</g>

</g>
        <g
           id="g981"
           style="fill:#076f9f;fill-opacity:0.97142857">
</g>
        <g
           id="g983"
           style="fill:#076f9f;fill-opacity:0.97142857">
</g>
        <g
           id="g985"
           style="fill:#076f9f;fill-opacity:0.97142857">
</g>
        <g
           id="g987"
           style="fill:#076f9f;fill-opacity:0.97142857">
</g>
        <g
           id="g989"
           style="fill:#076f9f;fill-opacity:0.97142857">
</g>
        <g
           id="g991"
           style="fill:#076f9f;fill-opacity:0.97142857">
</g>
        <g
           id="g993"
           style="fill:#076f9f;fill-opacity:0.97142857">
</g>
        <g
           id="g995"
           style="fill:#076f9f;fill-opacity:0.97142857">
</g>
        <g
           id="g997"
           style="fill:#076f9f;fill-opacity:0.97142857">
</g>
        <g
           id="g999"
           style="fill:#076f9f;fill-opacity:0.97142857">
</g>
        <g
           id="g1001"
           style="fill:#076f9f;fill-opacity:0.97142857">
</g>
        <g
           id="g1003"
           style="fill:#076f9f;fill-opacity:0.97142857">
</g>
        <g
           id="g1005"
           style="fill:#076f9f;fill-opacity:0.97142857">
</g>
        <g
           id="g1007"
           style="fill:#076f9f;fill-opacity:0.97142857">
</g>
        <g
           id="g1009"
           style="fill:#076f9f;fill-opacity:0.97142857">
</g>
      </g>
    </g>
  </g>
</svg>
